<?xml version="1.0" encoding="UTF-8"?>
<svg width="19px" height="16px" viewBox="0 0 19 16" version="1.1" xmlns="http://www.w3.org/2000/svg" xmlns:xlink="http://www.w3.org/1999/xlink">
    <!-- Generator: sketchtool 60 (101010) - https://sketch.com -->
    <title>DBB24375-4F33-4815-BBC7-91D825B6CDAF</title>
    <desc>Created with sketchtool.</desc>
    <g id="Page-1" stroke="none" stroke-width="1" fill="none" fill-rule="evenodd">
        <g id="Dribbble" transform="translate(-211.000000, -362.000000)" fill="#FFFCF8">
            <g id="book_table_btn" transform="translate(89.000000, 345.000000)">
                <path d="M129.817693,17.1875 L129.817693,17.1875 C133.772861,17.1875 136.979136,19.8412193 136.979136,23.1147095 C136.979136,26.3881616 133.772861,29.041919 129.817693,29.041919 C129.437838,29.041919 129.064995,29.0171618 128.701179,28.9700886 C127.162886,30.5370823 125.386513,30.8179571 123.611184,30.8592319 L123.611184,30.4758567 C124.569735,29.9973816 125.341791,29.1259564 125.341791,28.1300964 C125.341791,27.9910895 125.331161,27.8546003 125.311504,27.7212392 C123.691899,26.6344754 122.65625,24.9748231 122.65625,23.1147095 C122.65625,19.8412193 125.862525,17.1875 129.817693,17.1875 Z M138.13168,30.4901885 C138.13168,31.3438754 138.673563,32.0908658 139.504327,32.5009438 L139.504327,32.8296928 C137.965736,32.7942162 136.553477,32.5533956 135.22033,31.2103617 C134.904891,31.2507591 134.58188,31.2719306 134.252565,31.2719306 C132.828222,31.2719306 131.516186,30.8789805 130.46875,30.2185452 C132.627291,30.2106488 134.665057,29.5034456 136.210362,28.2246509 C136.989281,27.5798557 137.603822,26.8234812 138.036828,25.976203 C138.495795,25.0779987 138.728467,24.1210485 138.728467,23.1319023 C138.728467,22.9724487 138.721791,22.8139107 138.709818,22.65625 C139.792538,23.5708955 140.459261,24.8173417 140.459261,26.191389 C140.459261,27.7858102 139.561731,29.2084183 138.158051,30.1398866 C138.141005,30.2541743 138.13168,30.3711324 138.13168,30.4901885 Z" id="Fill-1"></path>
            </g>
        </g>
    </g>
</svg>