<?xml version="1.0" encoding="UTF-8"?>
<svg width="12px" height="12px" viewBox="0 0 12 12" version="1.1" xmlns="http://www.w3.org/2000/svg" xmlns:xlink="http://www.w3.org/1999/xlink">
    <!-- Generator: sketchtool 60 (101010) - https://sketch.com -->
    <title>EAF89AF2-90A1-4093-B20B-2A90D78C9A3E</title>
    <desc>Created with sketchtool.</desc>
    <defs>
        <linearGradient x1="99.9882819%" y1="0%" x2="0.0117180634%" y2="100%" id="linearGradient-1">
            <stop stop-color="#A431A1" offset="0%"></stop>
            <stop stop-color="#E84348" offset="48.5366788%"></stop>
            <stop stop-color="#FBB031" offset="100%"></stop>
        </linearGradient>
        <path d="M10.5882353,3.30882353 L10.5882353,7.27941176 C10.5882353,9.10654412 9.10654412,10.5882353 7.27941176,10.5882353 L3.30882353,10.5882353 C1.51228363,10.5882353 0.0497140161,9.15574591 0.00124080882,7.37089327 L0.00124080882,3.21734202 C0.0497140161,1.43248938 1.51228363,0 3.30882353,0 L7.27941176,0 C9.10654412,0 10.5882353,1.48169118 10.5882353,3.30882353 Z M9.59558824,7.27941176 L9.59558824,3.30882353 C9.59558824,2.03161765 8.55661765,0.992647059 7.27941176,0.992647059 L3.30882353,0.992647059 C2.03161765,0.992647059 0.992647059,2.03161765 0.992647059,3.30882353 L0.992647059,7.27941176 C0.992647059,8.55661765 2.03161765,9.59558824 3.30882353,9.59558824 L7.27941176,9.59558824 C8.55661765,9.59558824 9.59558824,8.55661765 9.59558824,7.27941176 Z" id="path-2"></path>
        <path d="M2.64705882,4.30147059 C1.73514706,4.30147059 0.992647059,3.55897059 0.992647059,2.64705882 C0.992647059,1.73448529 1.73514706,0.992647059 2.64705882,0.992647059 C3.55897059,0.992647059 4.30147059,1.73448529 4.30147059,2.64705882 C4.30147059,3.55897059 3.55897059,4.30147059 2.64705882,4.30147059 Z M2.64705882,0 C1.18522059,0 0,1.18522059 0,2.64705882 C0,4.10889706 1.18522059,5.29411765 2.64705882,5.29411765 C4.10889706,5.29411765 5.29411765,4.10889706 5.29411765,2.64705882 C5.29411765,1.18522059 4.10889706,0 2.64705882,0 L2.64705882,0 Z" id="path-4"></path>
        <path d="M0.363970588,0.00711397059 C0.558777574,0.00711397059 0.716691176,0.165027574 0.716691176,0.359834559 C0.716691176,0.554641544 0.558777574,0.712555147 0.363970588,0.712555147 C0.169163603,0.712555147 0.01125,0.554641544 0.01125,0.359834559 C0.01125,0.165027574 0.169163603,0.00711397059 0.363970588,0.00711397059" id="path-6"></path>
    </defs>
    <g id="Page-1" stroke="none" stroke-width="1" fill="none" fill-rule="evenodd">
        <g id="Dribbble" transform="translate(-688.000000, -26.000000)">
            <g id="instagram" transform="translate(684.000000, 22.000000)">
                <g transform="translate(4.705882, 4.705882)">
                    <g id="Group-3">
                        <mask id="mask-3" fill="white">
                            <use xlink:href="#path-2"></use>
                        </mask>
                        <use id="Clip-2" fill="url(#linearGradient-1)" xlink:href="#path-2"></use>
                        <polygon id="Fill-1" fill="#FFFFFF" mask="url(#mask-3)" points="0.00124080882 10.5882353 10.5882353 10.5882353 10.5882353 0 0.00124080882 0"></polygon>
                    </g>
                    <g id="Group-6" transform="translate(2.647059, 2.647059)">
                        <mask id="mask-5" fill="white">
                            <use xlink:href="#path-4"></use>
                        </mask>
                        <g id="Clip-5"></g>
                        <path d="M2.64705882,4.30147059 C1.73514706,4.30147059 0.992647059,3.55897059 0.992647059,2.64705882 C0.992647059,1.73448529 1.73514706,0.992647059 2.64705882,0.992647059 C3.55897059,0.992647059 4.30147059,1.73448529 4.30147059,2.64705882 C4.30147059,3.55897059 3.55897059,4.30147059 2.64705882,4.30147059 Z M2.64705882,0 C1.18522059,0 0,1.18522059 0,2.64705882 C0,4.10889706 1.18522059,5.29411765 2.64705882,5.29411765 C4.10889706,5.29411765 5.29411765,4.10889706 5.29411765,2.64705882 C5.29411765,1.18522059 4.10889706,0 2.64705882,0 L2.64705882,0 Z" id="Fill-4" fill="#FFFFFF" mask="url(#mask-5)"></path>
                    </g>
                    <g id="Group-9" transform="translate(7.775735, 2.088695)">
                        <mask id="mask-7" fill="white">
                            <use xlink:href="#path-6"></use>
                        </mask>
                        <g id="Clip-8"></g>
                        <path d="M0.363970588,0.00711397059 C0.558777574,0.00711397059 0.716691176,0.165027574 0.716691176,0.359834559 C0.716691176,0.554641544 0.558777574,0.712555147 0.363970588,0.712555147 C0.169163603,0.712555147 0.01125,0.554641544 0.01125,0.359834559 C0.01125,0.165027574 0.169163603,0.00711397059 0.363970588,0.00711397059" id="Fill-7" fill="#FFFFFF" mask="url(#mask-7)"></path>
                    </g>
                </g>
            </g>
        </g>
    </g>
</svg>